<?xml version="1.0" encoding="UTF-8" standalone="no"?>
<svg
   xmlns:dc="http://purl.org/dc/elements/1.1/"
   xmlns:cc="http://creativecommons.org/ns#"
   xmlns:rdf="http://www.w3.org/1999/02/22-rdf-syntax-ns#"
   xmlns:svg="http://www.w3.org/2000/svg"
   xmlns="http://www.w3.org/2000/svg"
   id="svg2451"
   viewBox="0, 0, 128, 128"
   height="128"
   width="128"
   y="0px"
   x="0px"
   version="1.1">
  <metadata
     id="metadata2455">
    <rdf:RDF>
      <cc:Work
         rdf:about="">
        <dc:format>image/svg+xml</dc:format>
        <dc:type
           rdf:resource="http://purl.org/dc/dcmitype/StillImage" />
        <dc:title></dc:title>
      </cc:Work>
    </rdf:RDF>
  </metadata>
  <g
     transform="matrix(1.2705,0,0,1.2705,-28.882197,-27.900779)"
     id="Background">
    <rect
       style="fill:#000000;fill-opacity:0"
       id="rect2434"
       height="128"
       width="128"
       y="0"
       x="0" />
  </g>
  <g
     id="g2447">
    <g
       style="fill:#ebeded;fill-opacity:1"
       id="g3681"
       transform="matrix(0.2025,0,0,0.2025,11.313137,17.859557)" />
    <g
       style="fill:#ebeded;fill-opacity:1"
       id="g3683"
       transform="matrix(0.2025,0,0,0.2025,11.313137,17.859557)" />
    <g
       style="fill:#ebeded;fill-opacity:1"
       id="g3685"
       transform="matrix(0.2025,0,0,0.2025,11.313137,17.859557)" />
    <g
       style="fill:#ebeded;fill-opacity:1"
       id="g3687"
       transform="matrix(0.2025,0,0,0.2025,11.313137,17.859557)" />
    <g
       style="fill:#ebeded;fill-opacity:1"
       id="g3689"
       transform="matrix(0.2025,0,0,0.2025,11.313137,17.859557)" />
    <g
       style="fill:#ebeded;fill-opacity:1"
       id="g3691"
       transform="matrix(0.2025,0,0,0.2025,11.313137,17.859557)" />
    <g
       style="fill:#ebeded;fill-opacity:1"
       id="g3693"
       transform="matrix(0.2025,0,0,0.2025,11.313137,17.859557)" />
    <g
       style="fill:#ebeded;fill-opacity:1"
       id="g3695"
       transform="matrix(0.2025,0,0,0.2025,11.313137,17.859557)" />
    <g
       style="fill:#ebeded;fill-opacity:1"
       id="g3697"
       transform="matrix(0.2025,0,0,0.2025,11.313137,17.859557)" />
    <g
       style="fill:#ebeded;fill-opacity:1"
       id="g3699"
       transform="matrix(0.2025,0,0,0.2025,11.313137,17.859557)" />
    <g
       style="fill:#ebeded;fill-opacity:1"
       id="g3701"
       transform="matrix(0.2025,0,0,0.2025,11.313137,17.859557)" />
    <g
       style="fill:#ebeded;fill-opacity:1"
       id="g3703"
       transform="matrix(0.2025,0,0,0.2025,11.313137,17.859557)" />
    <g
       style="fill:#ebeded;fill-opacity:1"
       id="g3705"
       transform="matrix(0.2025,0,0,0.2025,11.313137,17.859557)" />
    <g
       style="fill:#ebeded;fill-opacity:1"
       id="g3707"
       transform="matrix(0.2025,0,0,0.2025,11.313137,17.859557)" />
    <g
       style="fill:#ebeded;fill-opacity:1"
       id="g3709"
       transform="matrix(0.2025,0,0,0.2025,11.313137,17.859557)" />
    <g
       style="fill:#737370;fill-opacity:1;stroke:none"
       id="g599"
       transform="matrix(0.51884044,0,0,0.51884044,-65.847195,-54.488427)">
      <polygon
         transform="matrix(0.1356032,0.2932032,-0.00416466,0.97115047,323.55068,-54.480993)"
         id="polygon597"
         points="184.642,143.629 340.526,71.579 340.526,274.219 184.642,357.35 "
         style="fill:#737370;fill-opacity:1;stroke:none" />
      <rect
         y="139.58749"
         x="133.37123"
         height="207.25262"
         width="207.25262"
         id="rect1581"
         style="fill:#737370;fill-opacity:1;stroke:none;stroke-width:2.33212352;stroke-opacity:1" />
      <polygon
         transform="matrix(-0.31823348,-0.13560319,-0.97038174,0.00416466,540.83715,157.00748)"
         id="polygon597-3"
         points="340.526,274.219 184.642,357.35 184.642,143.629 340.526,71.579 "
         style="fill:#737370;fill-opacity:1;stroke:none" />
    </g>
    <g
       id="g601"
       transform="matrix(0.3375,0,0,0.3375,136.96358,-2.8188527)" />
    <g
       id="g603"
       transform="matrix(0.3375,0,0,0.3375,136.96358,-2.8188527)" />
    <g
       id="g605"
       transform="matrix(0.3375,0,0,0.3375,136.96358,-2.8188527)" />
    <g
       id="g607"
       transform="matrix(0.3375,0,0,0.3375,136.96358,-2.8188527)" />
    <g
       id="g609"
       transform="matrix(0.3375,0,0,0.3375,136.96358,-2.8188527)" />
    <g
       id="g611"
       transform="matrix(0.3375,0,0,0.3375,136.96358,-2.8188527)" />
    <g
       id="g613"
       transform="matrix(0.3375,0,0,0.3375,136.96358,-2.8188527)" />
    <g
       id="g615"
       transform="matrix(0.3375,0,0,0.3375,136.96358,-2.8188527)" />
    <g
       id="g617"
       transform="matrix(0.3375,0,0,0.3375,136.96358,-2.8188527)" />
    <g
       id="g619"
       transform="matrix(0.3375,0,0,0.3375,136.96358,-2.8188527)" />
    <g
       id="g621"
       transform="matrix(0.3375,0,0,0.3375,136.96358,-2.8188527)" />
    <g
       id="g623"
       transform="matrix(0.3375,0,0,0.3375,136.96358,-2.8188527)" />
    <g
       id="g625"
       transform="matrix(0.3375,0,0,0.3375,136.96358,-2.8188527)" />
    <g
       id="g627"
       transform="matrix(0.3375,0,0,0.3375,136.96358,-2.8188527)" />
    <g
       id="g629"
       transform="matrix(0.3375,0,0,0.3375,136.96358,-2.8188527)" />
    <path
       style="fill:#ebeded;fill-opacity:1;stroke-width:0.25550959"
       id="path554"
       d="m 245.79029,-101.14529 c -0.0413,-0.94972 -0.56983,-1.73815 -1.35364,-2.01852 l -19.31475,-6.90626 -0.44855,-2.46121 c -0.14038,-0.77038 -0.6112,-1.38149 -1.26038,-1.63656 l -14.91295,-5.85592 c 0.34781,-3.38854 0.26487,-6.95642 -0.26378,-10.66725 -1.17695,-8.26104 -4.11537,-14.28928 -4.23982,-14.54194 -0.29688,-0.60187 -0.82263,-1.00351 -1.43959,-1.09923 -0.61646,-0.0947 -1.26273,0.12397 -1.76841,0.60199 -1.88809,1.78399 -3.43582,3.81163 -4.70524,5.93103 -1.19416,-1.97491 -2.61949,-3.83815 -4.32368,-5.49782 -0.45873,-0.44695 -1.08509,-0.62589 -1.71312,-0.49065 -0.6285,0.13539 -1.19673,0.57181 -1.55529,1.19446 -0.19747,0.34339 -4.87121,8.53451 -7.52528,19.54264 -2.32041,9.62394 -2.3411,18.38436 -0.12332,25.908186 -8.59749,10.522496 -14.81985,29.163211 -17.8322,40.729099 -2.4291,6.1159 -2.36169,13.63769 -1.57049,13.95201 l 43.00374,-0.0748 c 0.28352,0.11253 0.58313,0.15038 0.88036,0.11991 0.53662,-0.0568 1.06464,-0.33733 1.47016,-0.80974 0.63058,-0.73392 0.84459,-1.7883 0.54379,-2.67859 -1.60935,-4.75982 -5.00879,-18.45957 -1.4578,-24.611048 1.05669,-1.83065 2.72758,-2.84162 5.10828,-3.09072 5.93443,-0.620929 6.60735,5.30725 6.66339,5.96963 0.0918,1.2672 1.03848,2.155628 2.17115,2.037058 3.05957,-0.320548 5.7854,-1.015168 8.17691,-2.069278 l 0.95853,2.408468 c 0.23182,0.58243 0.67047,1.01398 1.21555,1.1957 0.25305,0.0845 0.51868,0.1118 0.78426,0.0842 0.30703,-0.0286 0.61258,-0.13824 0.89645,-0.3136 7.36226,-4.578358 9.62642,-11.351446 10.22974,-16.227142 0.50013,-4.040646 -0.0507,-7.425373 -0.33245,-8.779674 3.09917,-2.484713 4.16985,-6.802945 4.03829,-9.843349 z m -29.72889,-1.0247 c -0.50088,0.66988 -1.18577,1.10011 -1.92865,1.21099 -0.037,0.005 -0.0741,0.011 -0.11101,0.0142 -1.50038,0.15699 -2.73039,-1.04186 -2.80046,-2.72936 -0.0706,-1.72763 1.11892,-3.31793 2.6518,-3.54731 1.53794,-0.22664 2.83947,0.98644 2.91122,2.71559 0.0348,0.83631 -0.22202,1.6659 -0.7229,2.33604 z" />
    <g
       style="fill:#82d1f5;fill-opacity:1"
       id="g16242"
       transform="matrix(0.20538767,-0.07884093,0.07884093,0.20538767,-15.805418,40.064776)">
      <g
         style="fill:#82d1f5;fill-opacity:1"
         id="g16244">
        <path
           style="fill:#82d1f5;fill-opacity:1"
           id="path16246"
           d="m 457.637,134.681 c -29.976,0 -54.363,24.387 -54.363,54.363 0,10.933 3.255,21.114 8.831,29.647 l -58.733,58.733 c -8.534,-5.576 -18.715,-8.831 -29.648,-8.831 -11.329,0 -21.858,3.488 -30.576,9.441 L 233.81,218.687 c 5.575,-8.533 8.828,-18.713 8.828,-29.644 0,-29.976 -24.387,-54.363 -54.363,-54.363 -29.976,0 -54.363,24.387 -54.363,54.363 0,10.931 3.254,21.108 8.827,29.641 L 84.004,277.42 C 75.472,271.846 65.293,268.593 54.363,268.593 24.387,268.593 0,292.981 0,322.957 c 0,29.976 24.387,54.363 54.363,54.363 29.976,0 54.363,-24.387 54.363,-54.363 0,-10.933 -3.255,-21.114 -8.831,-29.648 l 58.733,-58.733 c 8.534,5.576 18.715,8.831 29.648,8.831 10.932,0 21.113,-3.255 29.646,-8.831 l 59.666,59.674 c -5.206,8.338 -8.226,18.174 -8.226,28.706 0,29.976 24.387,54.363 54.363,54.363 29.976,0 54.363,-24.387 54.363,-54.363 0,-10.931 -3.254,-21.109 -8.827,-29.641 l 58.736,-58.736 c 8.533,5.574 18.712,8.827 29.641,8.827 29.976,0 54.363,-24.387 54.363,-54.363 0,-29.977 -24.388,-54.362 -54.364,-54.362 z M 54.363,354.849 c -17.586,0 -31.893,-14.307 -31.893,-31.892 0,-17.586 14.307,-31.893 31.893,-31.893 17.585,0 31.893,14.307 31.893,31.893 0,17.585 -14.307,31.892 -31.893,31.892 z M 188.276,220.936 c -17.585,0 -31.893,-14.307 -31.893,-31.893 0,-17.585 14.307,-31.893 31.893,-31.893 17.586,0 31.893,14.307 31.893,31.893 0,17.586 -14.307,31.893 -31.893,31.893 z m 135.448,133.913 c -17.585,0 -31.893,-14.307 -31.893,-31.893 0,-17.586 14.307,-31.893 31.893,-31.893 17.585,0 31.893,14.307 31.893,31.893 -0.001,17.586 -14.308,31.893 -31.893,31.893 z M 457.637,220.936 c -17.585,0 -31.893,-14.307 -31.893,-31.893 0,-17.585 14.307,-31.893 31.893,-31.893 17.585,0 31.893,14.307 31.893,31.893 0,17.586 -14.308,31.893 -31.893,31.893 z" />
      </g>
    </g>
    <g
       id="g16260"
       transform="translate(-425.05161,-310.28963)" />
    <g
       id="g16262"
       transform="translate(-425.05161,-310.28963)" />
    <g
       id="g16264"
       transform="translate(-425.05161,-310.28963)" />
    <g
       id="g16266"
       transform="translate(-425.05161,-310.28963)" />
    <g
       id="g16268"
       transform="translate(-425.05161,-310.28963)" />
    <g
       id="g16270"
       transform="translate(-425.05161,-310.28963)" />
    <g
       id="g16272"
       transform="translate(-425.05161,-310.28963)" />
    <g
       id="g16274"
       transform="translate(-425.05161,-310.28963)" />
    <g
       id="g16276"
       transform="translate(-425.05161,-310.28963)" />
    <g
       id="g16278"
       transform="translate(-425.05161,-310.28963)" />
    <g
       id="g16280"
       transform="translate(-425.05161,-310.28963)" />
    <g
       id="g16282"
       transform="translate(-425.05161,-310.28963)" />
    <g
       id="g16284"
       transform="translate(-425.05161,-310.28963)" />
    <g
       id="g16286"
       transform="translate(-425.05161,-310.28963)" />
    <g
       id="g16288"
       transform="translate(-425.05161,-310.28963)" />
  </g>
  <defs
     id="defs2449" />
</svg>
